<svg xmlns="http://www.w3.org/2000/svg" viewBox="0 0 512 512" role="img" aria-label="ODA Sources" >
<title>ODA Sources</title>
<rect width="512" height="512" fill="#01215B"/>
<g transform="translate(102.40 183.84) scale(0.73317) translate(-46 -148)" fill="#FFFFFF" fill-rule="evenodd"><path d="M110.17 282.28 C105.30 281.67 100.73 280.91 98.00 280.27 C88.13 277.98 77.19 272.45 69.09 265.67 C58.08 256.46 50.29 242.69 47.81 228.05 C47.10 223.87 46.98 222.10 46.97 215.74 C46.97 211.66 47.06 208.17 47.18 207.98 C47.29 207.80 47.60 206.25 47.85 204.55 C48.37 201.12 50.26 194.30 51.55 191.18 C54.64 183.76 59.29 176.53 64.50 171.04 C73.90 161.13 85.83 154.42 100.00 151.07 C106.65 149.51 108.71 149.26 116.83 149.09 C123.45 148.95 125.19 149.02 129.50 149.63 C140.01 151.12 148.98 154.10 157.33 158.86 C160.99 160.95 168.04 166.46 171.02 169.56 C178.13 176.95 183.34 185.72 186.46 195.57 C188.27 201.27 188.85 204.37 189.79 213.50 C190.03 215.78 189.32 225.00 188.64 228.50 C187.94 232.05 185.77 239.62 185.29 240.15 C185.13 240.32 185.00 240.65 185.00 240.87 C185.00 241.68 181.48 248.58 179.26 252.12 C176.64 256.31 174.75 258.67 170.72 262.79 C158.04 275.76 139.40 282.77 118.00 282.61 C114.98 282.59 111.45 282.44 110.17 282.28 Z M203.24 279.80 C203.11 279.66 203.00 250.87 203.00 215.81 L203.00 152.07 L207.42 151.83 C209.85 151.70 224.13 151.67 239.17 151.76 C268.22 151.93 268.42 151.94 277.06 153.69 C282.18 154.72 289.87 157.25 293.68 159.16 C303.88 164.28 312.05 171.48 317.77 180.37 C322.28 187.39 324.83 194.11 326.42 203.17 C327.40 208.72 327.48 222.85 326.56 227.67 C324.98 235.98 322.00 244.04 318.11 250.50 C314.98 255.70 311.63 259.48 305.67 264.51 C303.19 266.61 298.37 270.00 297.88 270.00 C297.78 270.00 296.80 270.53 295.71 271.17 C291.85 273.43 283.08 276.73 278.50 277.65 C277.40 277.87 275.83 278.21 275.00 278.40 C269.22 279.72 268.40 279.75 235.49 279.90 C217.89 279.97 203.37 279.93 203.24 279.80 Z M323.83 279.65 C323.64 279.36 324.39 277.40 326.83 271.83 C327.07 271.28 328.01 269.18 328.93 267.17 C331.24 262.07 343.64 232.80 347.36 223.67 C349.27 218.96 353.15 209.68 354.31 207.00 C354.83 205.81 355.34 204.58 355.44 204.26 C355.70 203.49 359.89 193.51 360.66 191.83 C360.99 191.10 361.83 189.07 362.52 187.33 C363.21 185.59 365.86 179.14 368.40 173.00 C370.95 166.86 373.64 160.33 374.39 158.50 C376.39 153.60 377.02 152.33 377.45 152.33 C377.66 152.32 386.08 152.30 396.15 152.28 L414.47 152.24 L414.95 152.97 C415.22 153.37 415.80 154.78 416.24 156.10 C416.69 157.42 417.24 158.95 417.47 159.50 C417.71 160.05 418.39 161.78 418.99 163.33 C420.42 167.06 422.26 171.59 427.93 185.33 C429.03 187.99 432.59 196.84 435.83 205.00 C439.08 213.16 442.26 221.11 442.90 222.67 C443.54 224.23 444.49 226.55 445.00 227.83 C445.51 229.12 446.38 231.29 446.94 232.67 C448.12 235.56 454.40 251.40 456.99 258.00 C457.96 260.48 459.02 263.10 459.34 263.83 C461.16 267.98 465.06 278.21 465.11 278.96 L465.17 279.83 L446.57 279.92 L427.97 280.01 L427.04 277.92 C426.53 276.77 425.79 274.93 425.41 273.82 C425.03 272.71 424.01 270.09 423.15 267.99 C422.29 265.89 421.08 262.74 420.45 261.00 C419.82 259.26 419.06 257.65 418.75 257.42 C418.33 257.09 413.08 257.00 395.12 257.00 C382.05 257.00 371.70 257.13 371.25 257.30 C370.71 257.51 370.24 258.15 369.84 259.22 C369.02 261.40 365.30 270.91 363.34 275.83 L361.74 279.83 L342.89 279.92 C329.94 279.98 323.97 279.90 323.83 279.65 Z M127.13 252.18 C130.15 251.49 135.59 249.28 137.95 247.78 C146.95 242.04 152.94 232.46 154.06 222.00 C154.53 217.65 154.17 209.75 153.37 207.00 C151.60 200.85 149.02 195.91 145.64 192.15 C143.11 189.35 142.71 188.99 140.17 187.17 C137.34 185.15 136.04 184.47 132.56 183.20 C128.08 181.57 127.49 181.42 123.86 180.97 C110.01 179.28 96.85 184.72 89.38 195.21 C86.17 199.72 84.02 204.88 83.02 210.48 C82.52 213.29 82.59 220.66 83.14 224.00 C84.33 231.11 87.55 237.56 92.46 242.61 C98.13 248.46 104.68 251.49 114.50 252.81 C116.59 253.09 124.93 252.67 127.13 252.18 Z M264.50 248.52 C270.97 246.96 275.09 245.15 279.26 242.05 C284.83 237.90 288.53 232.15 290.43 224.67 C291.39 220.87 291.45 211.07 290.53 207.67 C289.71 204.65 288.05 200.48 286.88 198.50 C283.09 192.11 276.41 186.94 269.05 184.71 C263.70 183.08 259.63 182.67 248.99 182.67 C243.53 182.67 238.82 182.76 238.53 182.87 C238.05 183.05 238.00 186.28 238.00 216.01 C238.00 242.03 238.09 248.98 238.42 249.13 C238.65 249.24 244.08 249.27 250.50 249.20 C260.00 249.11 262.60 248.98 264.50 248.52 Z M407.74 228.92 C408.22 228.54 408.21 228.32 407.62 226.50 C407.27 225.40 406.84 224.20 406.66 223.83 C406.49 223.47 405.81 221.67 405.14 219.83 C404.48 218.00 403.55 215.52 403.09 214.33 C402.62 213.14 402.12 211.79 401.98 211.33 C401.83 210.88 401.40 209.68 401.01 208.67 C400.61 207.66 399.26 203.92 397.99 200.37 C396.72 196.81 395.61 193.83 395.52 193.74 C395.02 193.24 394.36 194.33 393.23 197.55 C392.53 199.54 391.53 202.22 391.00 203.50 C390.47 204.78 388.15 210.93 385.84 217.16 C381.96 227.62 381.68 228.52 382.21 228.91 C383.05 229.52 406.96 229.52 407.74 228.92 Z"/></g>
<rect x="102.40" y="307.68" width="307.20" height="20.48" rx="10.24" fill="#BF0808"/>
</svg>
